<svg
   xmlns="http://www.w3.org/2000/svg"
   width="48"
   height="48"
   viewBox="0 0 500 500">
  <g transform="translate(-26.731506,-549.76731)">
    <circle
       style="fill:#bdbdbd;stroke:#747474;stroke-width:12.2008276"
       r="143.78844"
       cy="799.76721"
       cx="276.73151" />
    <circle
       style="fill:#727272;stroke:#3f3f3f;stroke-width:9.6184082"
       r="78.661186"
       cy="799.76721"
       cx="276.73151" />
  </g>
  <path
     style="fill:#ffec00;fill-opacity:1;fill-rule:evenodd;stroke:#000000;stroke-width:10.41666698"
     d="m 402.16667,185.71684 0,-93.750013 -93.74999,93.750003 z" />
  <path
     d="m 312.89753,236.10702 -0.84185,39.10016 72.73059,2.79643 c 0,0 28.91856,3.77733 36.22123,2.4312 2.89563,-14.47817 4.3229,-39.98833 4.3229,-39.98833 z"
     style="fill:#ffec00;fill-opacity:1;fill-rule:evenodd;stroke:#000000;stroke-width:13.54166603;" />
  <g transform="matrix(-1,0,0,1,523.79975,-551.49887)" >
    <path
       transform="scale(-1)"
       d="m -168.50807,-690.3407 a 154.52791,154.52791 0 0 1 -189.23142,19.88902 154.52791,154.52791 0 0 1 -65.07746,-178.79885 154.52791,154.52791 0 0 1 157.7441,-106.39974 154.52791,154.52791 0 0 1 141.40096,127.318"
       style="opacity:1;fill:#0000ff;fill-opacity:0;fill-rule:evenodd;stroke:#000000;stroke-width:55.92708206;" />
    <path
       transform="scale(-1)"
       d="m -152.4597,-708.47635 a 154.52791,154.52791 0 0 1 -195.95984,43.4065 154.52791,154.52791 0 0 1 -73.5365,-186.75322 154.52791,154.52791 0 0 1 172.94513,-101.85462 154.52791,154.52791 0 0 1 127.66311,154.87579"
       style="opacity:1;fill:#0000ff;fill-opacity:0;fill-rule:evenodd;stroke:#ffec00;stroke-width:31.49606323" />
  </g>
</svg>
