<?xml version="1.0" encoding="UTF-8" standalone="no"?>
<!-- Created with Inkscape (http://www.inkscape.org/) -->

<svg
   xmlns:osb="http://www.openswatchbook.org/uri/2009/osb"
   xmlns:dc="http://purl.org/dc/elements/1.1/"
   xmlns:cc="http://creativecommons.org/ns#"
   xmlns:rdf="http://www.w3.org/1999/02/22-rdf-syntax-ns#"
   xmlns:svg="http://www.w3.org/2000/svg"
   xmlns="http://www.w3.org/2000/svg"
   xmlns:sodipodi="http://sodipodi.sourceforge.net/DTD/sodipodi-0.dtd"
   xmlns:inkscape="http://www.inkscape.org/namespaces/inkscape"
   width="67.9px"
   height="48px"
   viewBox="0 0 1052.3622 744.09448"
   id="svg2"
   version="1.1"
   inkscape:version="0.91 r13725"
   sodipodi:docname="kick_3x.svg">
  <defs
     id="defs4">
    <linearGradient
       id="linearGradient4190"
       osb:paint="solid">
      <stop
         style="stop-color:#000000;stop-opacity:1;"
         offset="0"
         id="stop4192" />
    </linearGradient>
    <inkscape:path-effect
       effect="spiro"
       id="path-effect4179"
       is_visible="true" />
    <inkscape:path-effect
       effect="spiro"
       id="path-effect4174"
       is_visible="true" />
    <inkscape:path-effect
       effect="spiro"
       id="path-effect4153"
       is_visible="true" />
  </defs>
  <sodipodi:namedview
     id="base"
     pagecolor="#ffffff"
     bordercolor="#666666"
     borderopacity="1.0"
     inkscape:pageopacity="0.0"
     inkscape:pageshadow="2"
     inkscape:zoom="0.49497475"
     inkscape:cx="15.581754"
     inkscape:cy="514.15297"
     inkscape:document-units="px"
     inkscape:current-layer="layer5"
     showgrid="false"
     inkscape:window-width="958"
     inkscape:window-height="1003"
     inkscape:window-x="952"
     inkscape:window-y="0"
     inkscape:window-maximized="0" />
  <metadata
     id="metadata7">
    <rdf:RDF>
      <cc:Work
         rdf:about="">
        <dc:format>image/svg+xml</dc:format>
        <dc:type
           rdf:resource="http://purl.org/dc/dcmitype/StillImage" />
        <dc:title></dc:title>
      </cc:Work>
    </rdf:RDF>
  </metadata>
  <g
     inkscape:label="black_circle"
     inkscape:groupmode="layer"
     id="layer1"
     style="display:inline"
     transform="translate(0,-308.26772)" />
  <g
     inkscape:groupmode="layer"
     id="layer5"
     inkscape:label="kick_svg"
     style="display:inline;opacity:1"
     transform="translate(0,-308.26772)">
    <circle
       style="display:inline;opacity:1;fill:#000000;fill-rule:evenodd;stroke:#000000;stroke-width:0.97238606px;stroke-linecap:butt;stroke-linejoin:miter;stroke-opacity:1"
       id="path3336-2-9"
       cx="774.01581"
       cy="667.58984"
       r="248.51134" />
    <path
       style="display:inline;opacity:1;fill:#7d9fbd;fill-opacity:1;fill-rule:evenodd;stroke:#000000;stroke-width:24;stroke-linecap:butt;stroke-linejoin:miter;stroke-miterlimit:4;stroke-dasharray:none;stroke-opacity:1"
       d="m 771.99552,855.47821 -76.77159,75.7615 -64.64977,-113.13711 c 0,0 23.2335,-24.24367 20.20304,-44.44672 -15.15228,-33.33503 -64.64975,-45.45686 -64.64975,-45.45686 -25.2538,-27.27412 -90.91371,-197.9899 -82.83249,-248.49752 0,0 39.39595,-25.2538 52.52793,-22.22334 45.61826,16.62061 78.69862,74.81221 112.9332,136.86667 63.55728,115.20553 103.23943,261.13338 103.23943,261.13338 z"
       id="path4258-6-7"
       inkscape:connector-curvature="0"
       sodipodi:nodetypes="cccccccsc" />
    <path
       style="display:inline;opacity:1;fill:#7d9fbd;fill-opacity:1;fill-rule:evenodd;stroke:#000000;stroke-width:24;stroke-linecap:butt;stroke-linejoin:miter;stroke-miterlimit:4;stroke-dasharray:none;stroke-opacity:1"
       d="m 1040.6961,639.3056 c 0,0 -6.0609,-117.1777 -80.81222,-162.63455 0,0 -89.90357,76.77158 -156.57363,137.38074 -35.35534,0 -120.20816,-7.07108 -159.60411,-60.60916 -28.28427,-38.38579 -28.28427,-72.73097 -87.88325,-90.91372 -27.1717,59.12408 38.84968,178.23731 65.6599,208.09142 30.30457,23.23351 31.31473,27.27411 45.45686,44.44671 28.28427,32.32488 77.78175,158.59397 85.86297,154.55337 12.12183,8.0812 243.44677,-185.8681 287.89348,-230.31481 z"
       id="path4256-2-2"
       inkscape:connector-curvature="0"
       sodipodi:nodetypes="ccccccccc" />
    <circle
       style="display:inline;fill:#000000;fill-rule:evenodd;stroke:#000000;stroke-width:0.97238606px;stroke-linecap:butt;stroke-linejoin:miter;stroke-opacity:1"
       id="path3336-2"
       cx="531.57922"
       cy="673.6507"
       r="248.51134" />
    <path
       style="display:inline;opacity:1;fill:#7d9fbd;fill-opacity:1;fill-rule:evenodd;stroke:#000000;stroke-width:24;stroke-linecap:butt;stroke-linejoin:miter;stroke-miterlimit:4;stroke-dasharray:none;stroke-opacity:1"
       d="M 529.55891,861.53914 452.78732,937.30058 388.13755,824.1635 c 0,0 23.2335,-24.24367 20.20304,-44.44672 -15.15228,-33.33503 -64.64976,-45.45686 -64.64976,-45.45686 -25.2538,-27.27412 -90.91371,-197.9899 -82.83249,-248.49753 0,0 39.39595,-25.2538 52.52793,-22.22334 45.61827,16.62061 78.69863,74.81222 112.93321,136.86668 63.55728,115.20553 103.23943,261.13341 103.23943,261.13341 z"
       id="path4258-6"
       inkscape:connector-curvature="0"
       sodipodi:nodetypes="cccccccsc" />
    <path
       style="display:inline;opacity:1;fill:#7d9fbd;fill-opacity:1;fill-rule:evenodd;stroke:#000000;stroke-width:24;stroke-linecap:butt;stroke-linejoin:miter;stroke-miterlimit:4;stroke-dasharray:none;stroke-opacity:1"
       d="m 798.25948,645.3665 c 0,0 -6.06092,-117.1777 -80.81221,-162.63456 0,0 -89.90357,76.77159 -156.57363,137.38075 -35.35534,0 -120.20816,-7.07108 -159.60411,-60.60916 -28.28427,-38.3858 -28.28427,-72.73098 -87.88326,-90.91373 -27.1717,59.12409 38.84969,178.23732 65.65991,208.09143 30.30457,23.23351 31.31473,27.27411 45.45686,44.44671 28.28427,32.32488 77.78175,158.59395 85.86297,154.55334 12.12183,8.08123 253.54828,-204.05081 287.89347,-230.31478 z"
       id="path4256-2"
       inkscape:connector-curvature="0"
       sodipodi:nodetypes="ccccccccc" />
    <circle
       style="display:inline;fill:#000000;fill-rule:evenodd;stroke:#000000;stroke-width:0.97238606px;stroke-linecap:butt;stroke-linejoin:miter;stroke-opacity:1"
       id="path3336"
       cx="291.93405"
       cy="671.53467"
       r="248.51134" />
    <path
       style="fill:#7d9fbd;fill-opacity:1;fill-rule:evenodd;stroke:#000000;stroke-width:24;stroke-linecap:butt;stroke-linejoin:miter;stroke-miterlimit:4;stroke-dasharray:none;stroke-opacity:1"
       d="M 289.91379,859.42307 213.1422,935.18451 148.49243,822.04743 c 0,0 23.2335,-24.24367 20.20304,-44.44672 -15.15228,-33.33503 -40.4061,-33.33503 -64.64976,-45.45686 -25.253814,-27.27412 -90.913729,-197.9899 -82.832509,-248.49753 0,0 39.395955,-25.2538 52.527935,-22.22334 45.618284,16.62061 78.698644,74.81222 112.933224,136.86668 63.55728,115.20553 103.23943,261.13341 103.23943,261.13341 z"
       id="path4258"
       inkscape:connector-curvature="0"
       sodipodi:nodetypes="cccccccsc" />
    <path
       style="fill:#7d9fbd;fill-opacity:1;fill-rule:evenodd;stroke:#000000;stroke-width:24;stroke-linecap:butt;stroke-linejoin:miter;stroke-miterlimit:4;stroke-dasharray:none;stroke-opacity:1"
       d="m 558.61436,643.25043 c 0,0 -6.06092,-117.1777 -80.81221,-162.63456 0,0 -89.90357,76.77159 -156.57363,137.38075 -35.35534,0 -120.20816,-7.07108 -159.60411,-60.60916 -28.28427,-38.3858 -28.28427,-72.73098 -87.883274,-90.91373 -27.1717,59.12409 38.849704,178.23732 65.659924,208.09143 30.30457,23.23351 31.31473,27.27411 45.45686,44.44671 28.28427,32.32488 77.78175,158.59395 85.86297,154.55334 12.12183,8.08123 257.58889,-200.0102 287.89347,-230.31478 z"
       id="path4256"
       inkscape:connector-curvature="0"
       sodipodi:nodetypes="ccccccccc" />
    <text
       xml:space="preserve"
       style="font-style:normal;font-weight:normal;font-size:38.13631821px;line-height:125%;font-family:sans-serif;letter-spacing:0px;word-spacing:0px;display:inline;opacity:1;fill:#000000;fill-opacity:1;stroke:none;stroke-width:15;stroke-linecap:butt;stroke-linejoin:miter;stroke-miterlimit:4;stroke-dasharray:none;stroke-opacity:1"
       x="11.300613"
       y="1164.005"
       id="text4238"
       sodipodi:linespacing="125%"
       transform="scale(1.2246556,0.8165561)"><tspan
         sodipodi:role="line"
         id="tspan4240"
         x="11.300613"
         y="1164.005"
         style="font-style:normal;font-variant:normal;font-weight:normal;font-stretch:condensed;font-size:286.02236938px;font-family:Impact;-inkscape-font-specification:'Impact Condensed';word-spacing:0px;writing-mode:lr-tb;fill:#ffffff;fill-opacity:1;stroke:#000000;stroke-width:15;stroke-miterlimit:4;stroke-dasharray:none;stroke-opacity:1">3x</tspan></text>
  </g>
</svg>
