<svg xmlns="http://www.w3.org/2000/svg" xmlns:xlink="http://www.w3.org/1999/xlink" width="48" height="48" viewBox="0 0 708.66142 708.66141"><defs><linearGradient id="a"><stop offset="0" stop-color="#fff"/><stop offset="1" stop-color="#ff0"/></linearGradient><radialGradient xlink:href="#a" id="b" cx="374.709" cy="692.997" fx="374.709" fy="692.997" r="295.596" gradientUnits="userSpaceOnUse"/></defs><g transform="translate(0 -343.7)" fill-rule="evenodd"><path d="M140.33 546.315c-49.266 24.56-83.778 41.258-88.913 66.085-8.13 39.3 27.635 57.674 156.2 235.502l82.907-58.875zm245.513-140.383c42.193-27.2 52.765-47.952 90.4-28.85 21.546 10.938 23.16 56.854 83.43 162.732l-73.496 40.036zM422.77 737.73l121.357-67.288 15.62 32.442-323.215 200.658s28.837 39.65 61.278 43.255c32.442 2.403 55.27-28.837 75.698-13.217 31.24 27.636 32.44 51.667 70.89 55.27 30.04 0 161.008-70.89 167.015-116.55 6.008-30.037-10.814-49.262-22.83-84.107 0 0 45.66-22.83 46.86-55.27-4.805-85.31-3.603-78.1-9.61-156.2-34.846-50.466-68.49 8.41-237.907 98.525z" fill="#ff0" stroke="#ff0" stroke-width="47.579" stroke-linejoin="round"/><circle cx="374.709" cy="692.997" r="295.596" fill="url(#b)"/></g><g fill="#fff" fill-rule="evenodd" stroke="#000" stroke-width="11.895" stroke-linejoin="round"><path d="M139.207 202.708c-49.267 24.56-83.78 41.258-88.914 66.085-8.13 39.3 25.232 60.077 153.797 237.906l87.713-55.272zM384.72 62.325c42.192-27.2 52.763-47.952 90.397-28.85 21.548 10.938 23.162 56.854 83.43 162.732l-73.495 40.036zM159.83 195.057l90.4-54.082 102.654 174.748-2.453 31.937 27.586 46.355-69.79 43.45zm110.543-64.282l95.204-55.284 95.446 175.95-92.72 49.648z"/><path d="M421.57 392.552l121.355-67.287 15.62 32.442L235.33 558.365s28.837 39.65 61.28 43.256c32.44 2.404 55.27-28.837 75.696-13.216 31.24 27.635 32.442 51.666 70.89 55.27 30.04 0 161.008-70.89 167.016-116.55 6.008-30.038-10.814-49.262-22.83-84.107 0 0 45.66-22.83 46.86-55.27-4.805-85.31-3.604-78.102-9.612-156.202-34.844-50.465-68.488 8.41-237.905 98.527z"/></g><text style="line-height:0%" x="94.007" y="1281.298" transform="matrix(1.22466 0 0 .81656 0 -343.7)" font-family="sans-serif" letter-spacing="0" word-spacing="0" stroke-width="10"><tspan x="94.007" y="1281.298" style="line-height:1.25;-inkscape-font-specification:'Impact Condensed'" font-stretch="condensed" font-size="340.214" font-family="Impact" fill="#fff" stroke="#000" stroke-width="11.895">LP</tspan></text></svg>
