<svg xmlns="http://www.w3.org/2000/svg" width="67.9" height="48" viewBox="0 0 1052.3622 744.0945">
  <circle cx="301.6049" cy="696.4091" r="248.5113" fill-rule="evenodd" stroke="#000" stroke-width=".9724" transform="translate(0 -308.268)"/>
  <g transform="translate(0 -308.268)">
    <circle cx="771.7565" cy="685.2058" r="248.5113" fill-rule="evenodd" stroke="#000" stroke-width=".9724"/>
    <path d="M770.07 441.9254c35.4722-22.8665 66.5833-45.3647 98.2225-29.3053 18.1156 9.1953 37.6553 98.3056 88.3235 187.3186l-75.9304 41.74z" fill="#f0cc84" fill-rule="evenodd" stroke="#000" stroke-width="25" stroke-linejoin="round"/>
    <circle cx="536.2281" cy="691.8194" r="248.5113" fill-rule="evenodd" stroke="#000" stroke-width=".9724"/>
    <path d="M676.9684 499.4717l92.1616-53.549L874.626 638.292l-100.174 24.5674z" fill="#f0cc84" fill-rule="evenodd" stroke="#000" stroke-width="12" stroke-linejoin="round"/>
    <path d="M806.1018 741.7743l104.0457-61.6193 11.1116 10.1016-289.9135 163.6447s27.274 53.538 54.5482 56.5685c27.274 2.0203 59.599-27.274 76.7716-14.142 26.264 23.2334 37.3756 50.5075 69.7005 53.538 25.2538 0 147.4823-66.67 152.533-105.056 5.0508-25.2537-9.0913-46.467-19.193-75.7613 0 0 39.396-19.193 40.4063-46.467-8.0812-73.7412-8.0812-73.7412-19.193-146.4722-29.2943-42.4264-80.812 15.1523-223.2435 90.9137zM534.5415 448.539c35.4722-22.8665 66.5834-45.3648 98.2226-29.3053 18.1157 9.195 37.6555 98.3054 88.3236 187.3184l-75.9303 41.7403z" fill="#f0cc84" fill-rule="evenodd" stroke="#000" stroke-width="25" stroke-linejoin="round"/>
    <path d="M441.44 506.0852l92.1615-53.549 105.496 192.3693-100.174 24.5675z" fill="#f0cc84" fill-rule="evenodd" stroke="#000" stroke-width="12" stroke-linejoin="round"/>
    <path d="M570.5733 748.388l104.0457-61.6194 11.1117 10.1015L395.817 860.515s27.274 53.538 54.548 56.5684c27.2743 2.0203 59.599-27.274 76.7717-14.142 26.264 23.2334 37.3757 50.5075 69.7006 53.538 25.2538 0 147.4822-66.67 152.533-105.056 5.0508-25.2537-9.0914-46.467-19.193-75.7614 0 0 39.396-19.193 40.4062-46.467-8.0812-73.741-8.0812-73.741-19.193-146.472-29.2943-42.4265-80.812 15.1522-223.2436 90.9136zm-467.9685-192.39c-41.4196 20.6476-90.637 49.8383-94.9543 70.7106-6.834 33.0394 32.325 70.7107 140.4112 220.2133l98.995-61.6195zm197.3135-102.8693c35.4722-22.8664 66.5834-45.3647 98.2226-29.3052 18.1153 9.195 37.655 98.3054 88.3232 187.3184l-75.9304 41.74z" fill="#f0cc84" fill-rule="evenodd" stroke="#000" stroke-width="25" stroke-linejoin="round"/>
    <path d="M112.8725 561.688l84.0804-47.4882 135.8004 210.552-88.0522 53.862zm93.9442-51.013l92.1616-53.549 105.496 192.3693-100.174 24.5674z" fill="#f0cc84" fill-rule="evenodd" stroke="#000" stroke-width="12" stroke-linejoin="round"/>
    <path d="M335.95 752.9777l104.0458-61.6193 11.1117 10.1015-289.9138 163.6445s27.274 53.538 54.5482 56.5686c27.274 2.0204 59.599-27.274 76.7714-14.142 26.264 23.2334 37.3757 50.5076 69.7005 53.538 25.254 0 147.4822-66.67 152.533-105.0558 5.0507-25.254-9.0914-46.467-19.193-75.7615 0 0 39.396-19.193 40.406-46.467-8.081-73.741-8.081-73.741-19.1927-146.472-29.2945-42.4265-80.8122 15.1522-223.2437 90.9136z" fill="#f0cc84" fill-rule="evenodd" stroke="#000" stroke-width="25" stroke-linejoin="round"/>
    <text style="line-height:125%" x="11.9265" y="1191.0658" transform="scale(1.2247 .8166)" font-size="38.1363" font-family="sans-serif" letter-spacing="0" word-spacing="0" stroke-width="15">
      <tspan x="11.9265" y="1191.0658" style="-inkscape-font-specification:'Impact Condensed'" font-stretch="condensed" font-size="286.0224" font-family="Impact" fill="#fff" stroke="#000">3x</tspan>
    </text>
  </g>
</svg>
