<svg xmlns="http://www.w3.org/2000/svg" width="48" height="48" viewBox="0 0 708.6614 708.6614">
  <circle cx="391.6301" cy="706.5144" r="310.4383" fill-rule="evenodd" stroke="#000" stroke-width="1.2147" transform="translate(0 -343.7)"/>
  <g fill="#e7cc84" fill-rule="evenodd" stroke="#000" stroke-linejoin="round">
    <path d="M143.041 187.413C91.3 213.206 29.8176 249.6708 24.4246 275.7444c-8.5368 41.2725 40.38 88.3312 175.4005 275.0886l123.6638-76.9744zM389.5233 58.9097C433.835 30.345 472.6987 2.2405 512.222 22.3017c22.63 11.4865 47.0388 122.8024 110.333 233.9967l-94.8516 52.1414z" stroke-width="31.2298"/>
    <path d="M155.8672 194.521l105.0325-59.3218 169.641 263.0198-109.994 67.2838zm117.3543-63.725L388.349 63.903l131.7848 240.306-125.1366 30.6897z" stroke-width="14.9903"/>
    <path d="M434.534 433.4786l129.973-76.9744 13.8805 12.6188-362.158 204.4236s34.0707 66.8793 68.1413 70.665c34.0706 2.5237 74.4506-34.0706 95.9025-17.6663 32.8087 29.023 46.6893 63.0937 87.0693 66.8794 31.5468 0 184.2336-83.2837 190.543-131.235 6.3094-31.5468-11.357-58.0462-23.9756-94.6405 0 0 49.213-23.9756 50.475-58.0462-10.095-92.117-10.095-92.117-23.9756-182.9718-36.5944-52.9987-100.95 18.928-278.8743 113.5687z" stroke-width="31.2298"/>
  </g>
</svg>
